<svg xmlns="http://www.w3.org/2000/svg" viewBox="0 0 980 240" role="img" aria-label="IVT Shape Logo">
  <defs>
    <linearGradient id="g" x1="0" y1="0" x2="1" y2="1">
      <stop offset="0%" stop-color="#0d5ea8"/>
      <stop offset="100%" stop-color="#38bdf8"/>
    </linearGradient>
  </defs>
  <rect width="980" height="240" rx="30" fill="#ffffff"/>

  <g transform="translate(30 24)">
    <path d="M100 8 L175 52 L175 140 L100 184 L25 140 L25 52 Z" fill="url(#g)"/>
    <path d="M70 62 L86 62 L86 132 L70 132 Z" fill="#ffffff"/>
    <path d="M114 62 L130 62 L130 132 L114 132 Z" fill="#ffffff"/>
    <path d="M56 62 L144 62 L144 76 L56 76 Z" fill="#ffffff"/>
    <path d="M86 94 L100 78 L114 94 L114 132 L86 132 Z" fill="#e9f6ff"/>
    <path d="M40 146 L100 98 L160 146" stroke="#f2a65a" stroke-width="8" fill="none" stroke-linecap="round"/>
  </g>

  <text x="240" y="106" font-size="58" font-family="Segoe UI, Arial, sans-serif" font-weight="800" fill="#0f172a">IVT</text>
  <text x="240" y="156" font-size="46" font-family="Segoe UI, Arial, sans-serif" font-weight="700" fill="#1c4f83">Inovalytics Technology</text>
</svg>
